<svg width="19" height="17" viewBox="0 0 19 17" fill="none" xmlns="http://www.w3.org/2000/svg">
<path d="M15 0H14H4.57C3.5 0 2.59 0.67 2.38 1.61L1.04 7.61C0.769999 8.85 1.82 10 3.23 10H7.46L5.94 14.94C5.62 15.97 6.46 17 7.62 17C8.2 17 8.76 16.76 9.14 16.35L15 10H19V0H15ZM8.4 15.67C8.21 15.88 7.92 16 7.62 16C7.36 16 7.12 15.89 6.99 15.7C6.92 15.6 6.84 15.44 6.9 15.23L8.42 10.29L8.82 9H7.46H3.23C2.82 9 2.43 8.83 2.2 8.54C2.08 8.39 1.95 8.14 2.02 7.82L3.36 1.82C3.46 1.35 3.97 1 4.57 1H14V9.61L8.4 15.67ZM18 9H15V1H18V9Z" fill="white"/>
</svg>
